<?xml version="1.0" encoding="UTF-8" standalone="no"?>
<!DOCTYPE svg PUBLIC "-//W3C//DTD SVG 1.1//EN"
 "http://www.w3.org/Graphics/SVG/1.1/DTD/svg11.dtd">
<!-- Generated by graphviz version 5.0.0 (20220707.1540)
 -->
<!-- Title: dependencies Pages: 1 -->
<svg width="3686pt" height="247pt"
 viewBox="0.00 0.00 3686.00 246.80" xmlns="http://www.w3.org/2000/svg" xmlns:xlink="http://www.w3.org/1999/xlink">
<g id="graph0" class="graph" transform="scale(1 1) rotate(0) translate(4 242.8)">
<title>dependencies</title>
<polygon fill="white" stroke="transparent" points="-4,4 -4,-242.8 3682,-242.8 3682,4 -4,4"/>
<text text-anchor="middle" x="1839" y="-8.2" font-family="sans-serif" font-size="14.00">dependencies</text>
<g id="clust1" class="cluster">
<title>cluster_AppModule</title>
<polygon fill="none" stroke="black" stroke-dasharray="1,5" points="8,-32.8 8,-230.8 3670,-230.8 3670,-32.8 8,-32.8"/>
</g>
<g id="clust27" class="cluster">
<title>cluster_AppModule_imports</title>
<polygon fill="none" stroke="black" points="3518,-40.8 3518,-92.8 3662,-92.8 3662,-40.8 3518,-40.8"/>
</g>
<g id="clust29" class="cluster">
<title>cluster_AppModule_bootstrap</title>
<polygon fill="none" stroke="black" points="1833,-170.8 1833,-222.8 1957,-222.8 1957,-170.8 1833,-170.8"/>
</g>
<g id="clust2" class="cluster">
<title>cluster_AppModule_declarations</title>
<polygon fill="none" stroke="black" points="16,-40.8 16,-92.8 3510,-92.8 3510,-40.8 16,-40.8"/>
</g>
<!-- AboutPageComponent -->
<g id="node1" class="node">
<title>AboutPageComponent</title>
<polygon fill="#ffffb3" stroke="black" points="3501.55,-84.8 3358.45,-84.8 3358.45,-48.8 3501.55,-48.8 3501.55,-84.8"/>
<text text-anchor="middle" x="3430" y="-62.6" font-family="Times,serif" font-size="14.00">AboutPageComponent</text>
</g>
<!-- AppModule -->
<g id="node25" class="node">
<title>AppModule</title>
<polygon fill="#8dd3c7" stroke="black" points="1936.66,-149.8 1933.66,-153.8 1912.66,-153.8 1909.66,-149.8 1853.34,-149.8 1853.34,-113.8 1936.66,-113.8 1936.66,-149.8"/>
<text text-anchor="middle" x="1895" y="-127.6" font-family="Times,serif" font-size="14.00">AppModule</text>
</g>
<!-- AboutPageComponent&#45;&gt;AppModule -->
<g id="edge1" class="edge">
<title>AboutPageComponent&#45;&gt;AppModule</title>
<path fill="none" stroke="black" d="M3430,-84.89C3430,-107.93 3430,-144.8 3430,-144.8 3430,-144.8 1946.85,-144.8 1946.85,-144.8"/>
<polygon fill="black" stroke="black" points="1946.85,-141.3 1936.85,-144.8 1946.85,-148.3 1946.85,-141.3"/>
</g>
<!-- AppComponent -->
<g id="node2" class="node">
<title>AppComponent</title>
<polygon fill="#ffffb3" stroke="black" points="3340.94,-84.8 3235.06,-84.8 3235.06,-48.8 3340.94,-48.8 3340.94,-84.8"/>
<text text-anchor="middle" x="3288" y="-62.6" font-family="Times,serif" font-size="14.00">AppComponent</text>
</g>
<!-- AppComponent&#45;&gt;AppModule -->
<g id="edge2" class="edge">
<title>AppComponent&#45;&gt;AppModule</title>
<path fill="none" stroke="black" d="M3288,-84.96C3288,-107.15 3288,-141.8 3288,-141.8 3288,-141.8 1946.69,-141.8 1946.69,-141.8"/>
<polygon fill="black" stroke="black" points="1946.69,-138.3 1936.69,-141.8 1946.69,-145.3 1946.69,-138.3"/>
</g>
<!-- BannerComponent -->
<g id="node3" class="node">
<title>BannerComponent</title>
<polygon fill="#ffffb3" stroke="black" points="3216.76,-84.8 3095.24,-84.8 3095.24,-48.8 3216.76,-48.8 3216.76,-84.8"/>
<text text-anchor="middle" x="3156" y="-62.6" font-family="Times,serif" font-size="14.00">BannerComponent</text>
</g>
<!-- BannerComponent&#45;&gt;AppModule -->
<g id="edge3" class="edge">
<title>BannerComponent&#45;&gt;AppModule</title>
<path fill="none" stroke="black" d="M3156,-84.97C3156,-106.3 3156,-138.8 3156,-138.8 3156,-138.8 1946.96,-138.8 1946.96,-138.8"/>
<polygon fill="black" stroke="black" points="1946.96,-135.3 1936.96,-138.8 1946.96,-142.3 1946.96,-135.3"/>
</g>
<!-- BrandsComponent -->
<g id="node4" class="node">
<title>BrandsComponent</title>
<polygon fill="#ffffb3" stroke="black" points="3077.49,-84.8 2956.51,-84.8 2956.51,-48.8 3077.49,-48.8 3077.49,-84.8"/>
<text text-anchor="middle" x="3017" y="-62.6" font-family="Times,serif" font-size="14.00">BrandsComponent</text>
</g>
<!-- BrandsComponent&#45;&gt;AppModule -->
<g id="edge4" class="edge">
<title>BrandsComponent&#45;&gt;AppModule</title>
<path fill="none" stroke="black" d="M3017,-84.83C3017,-105.57 3017,-136.8 3017,-136.8 3017,-136.8 1946.94,-136.8 1946.94,-136.8"/>
<polygon fill="black" stroke="black" points="1946.94,-133.3 1936.94,-136.8 1946.94,-140.3 1946.94,-133.3"/>
</g>
<!-- ContactComponent -->
<g id="node5" class="node">
<title>ContactComponent</title>
<polygon fill="#ffffb3" stroke="black" points="2938.38,-84.8 2813.62,-84.8 2813.62,-48.8 2938.38,-48.8 2938.38,-84.8"/>
<text text-anchor="middle" x="2876" y="-62.6" font-family="Times,serif" font-size="14.00">ContactComponent</text>
</g>
<!-- ContactComponent&#45;&gt;AppModule -->
<g id="edge5" class="edge">
<title>ContactComponent&#45;&gt;AppModule</title>
<path fill="none" stroke="black" d="M2876,-85.11C2876,-104.95 2876,-133.8 2876,-133.8 2876,-133.8 1946.84,-133.8 1946.84,-133.8"/>
<polygon fill="black" stroke="black" points="1946.84,-130.3 1936.84,-133.8 1946.84,-137.3 1946.84,-130.3"/>
</g>
<!-- ContactPageComponent -->
<g id="node6" class="node">
<title>ContactPageComponent</title>
<polygon fill="#ffffb3" stroke="black" points="2796.09,-84.8 2643.91,-84.8 2643.91,-48.8 2796.09,-48.8 2796.09,-84.8"/>
<text text-anchor="middle" x="2720" y="-62.6" font-family="Times,serif" font-size="14.00">ContactPageComponent</text>
</g>
<!-- ContactPageComponent&#45;&gt;AppModule -->
<g id="edge6" class="edge">
<title>ContactPageComponent&#45;&gt;AppModule</title>
<path fill="none" stroke="black" d="M2720,-84.97C2720,-103.89 2720,-130.8 2720,-130.8 2720,-130.8 1946.76,-130.8 1946.76,-130.8"/>
<polygon fill="black" stroke="black" points="1946.76,-127.3 1936.76,-130.8 1946.76,-134.3 1946.76,-127.3"/>
</g>
<!-- FooterComponent -->
<g id="node7" class="node">
<title>FooterComponent</title>
<polygon fill="#ffffb3" stroke="black" points="2625.88,-84.8 2508.12,-84.8 2508.12,-48.8 2625.88,-48.8 2625.88,-84.8"/>
<text text-anchor="middle" x="2567" y="-62.6" font-family="Times,serif" font-size="14.00">FooterComponent</text>
</g>
<!-- FooterComponent&#45;&gt;AppModule -->
<g id="edge7" class="edge">
<title>FooterComponent&#45;&gt;AppModule</title>
<path fill="none" stroke="black" d="M2567,-85.1C2567,-103.07 2567,-127.8 2567,-127.8 2567,-127.8 1946.78,-127.8 1946.78,-127.8"/>
<polygon fill="black" stroke="black" points="1946.78,-124.3 1936.78,-127.8 1946.78,-131.3 1946.78,-124.3"/>
</g>
<!-- HeaderComponent -->
<g id="node8" class="node">
<title>HeaderComponent</title>
<polygon fill="#ffffb3" stroke="black" points="2489.75,-84.8 2368.25,-84.8 2368.25,-48.8 2489.75,-48.8 2489.75,-84.8"/>
<text text-anchor="middle" x="2429" y="-62.6" font-family="Times,serif" font-size="14.00">HeaderComponent</text>
</g>
<!-- HeaderComponent&#45;&gt;AppModule -->
<g id="edge8" class="edge">
<title>HeaderComponent&#45;&gt;AppModule</title>
<path fill="none" stroke="black" d="M2429,-84.82C2429,-102.17 2429,-125.8 2429,-125.8 2429,-125.8 1946.9,-125.8 1946.9,-125.8"/>
<polygon fill="black" stroke="black" points="1946.9,-122.3 1936.9,-125.8 1946.9,-129.3 1946.9,-122.3"/>
</g>
<!-- HeroComponent -->
<g id="node9" class="node">
<title>HeroComponent</title>
<polygon fill="#ffffb3" stroke="black" points="2349.82,-84.8 2240.18,-84.8 2240.18,-48.8 2349.82,-48.8 2349.82,-84.8"/>
<text text-anchor="middle" x="2295" y="-62.6" font-family="Times,serif" font-size="14.00">HeroComponent</text>
</g>
<!-- HeroComponent&#45;&gt;AppModule -->
<g id="edge9" class="edge">
<title>HeroComponent&#45;&gt;AppModule</title>
<path fill="none" stroke="black" d="M2295,-84.83C2295,-101.2 2295,-122.8 2295,-122.8 2295,-122.8 1946.68,-122.8 1946.68,-122.8"/>
<polygon fill="black" stroke="black" points="1946.68,-119.3 1936.68,-122.8 1946.67,-126.3 1946.68,-119.3"/>
</g>
<!-- HomeComponent -->
<g id="node10" class="node">
<title>HomeComponent</title>
<polygon fill="#ffffb3" stroke="black" points="2222.55,-84.8 2107.45,-84.8 2107.45,-48.8 2222.55,-48.8 2222.55,-84.8"/>
<text text-anchor="middle" x="2165" y="-62.6" font-family="Times,serif" font-size="14.00">HomeComponent</text>
</g>
<!-- HomeComponent&#45;&gt;AppModule -->
<g id="edge10" class="edge">
<title>HomeComponent&#45;&gt;AppModule</title>
<path fill="none" stroke="black" d="M2165,-85.04C2165,-100.37 2165,-119.8 2165,-119.8 2165,-119.8 1946.89,-119.8 1946.89,-119.8"/>
<polygon fill="black" stroke="black" points="1946.89,-116.3 1936.89,-119.8 1946.89,-123.3 1946.89,-116.3"/>
</g>
<!-- KidsComponent -->
<g id="node11" class="node">
<title>KidsComponent</title>
<polygon fill="#ffffb3" stroke="black" points="2088.78,-84.8 1981.22,-84.8 1981.22,-48.8 2088.78,-48.8 2088.78,-84.8"/>
<text text-anchor="middle" x="2035" y="-62.6" font-family="Times,serif" font-size="14.00">KidsComponent</text>
</g>
<!-- KidsComponent&#45;&gt;AppModule -->
<g id="edge11" class="edge">
<title>KidsComponent&#45;&gt;AppModule</title>
<path fill="none" stroke="black" d="M2035,-84.85C2035,-99.17 2035,-116.8 2035,-116.8 2035,-116.8 1947,-116.8 1947,-116.8"/>
<polygon fill="black" stroke="black" points="1947,-113.3 1937,-116.8 1947,-120.3 1947,-113.3"/>
</g>
<!-- KidsShopComponent -->
<g id="node12" class="node">
<title>KidsShopComponent</title>
<polygon fill="#ffffb3" stroke="black" points="1963.07,-84.8 1826.93,-84.8 1826.93,-48.8 1963.07,-48.8 1963.07,-84.8"/>
<text text-anchor="middle" x="1895" y="-62.6" font-family="Times,serif" font-size="14.00">KidsShopComponent</text>
</g>
<!-- KidsShopComponent&#45;&gt;AppModule -->
<g id="edge12" class="edge">
<title>KidsShopComponent&#45;&gt;AppModule</title>
<path fill="none" stroke="black" d="M1895,-84.91C1895,-84.91 1895,-103.79 1895,-103.79"/>
<polygon fill="black" stroke="black" points="1891.5,-103.79 1895,-113.79 1898.5,-103.79 1891.5,-103.79"/>
</g>
<!-- LatestComponent -->
<g id="node13" class="node">
<title>LatestComponent</title>
<polygon fill="#ffffb3" stroke="black" points="1808.54,-84.8 1693.46,-84.8 1693.46,-48.8 1808.54,-48.8 1808.54,-84.8"/>
<text text-anchor="middle" x="1751" y="-62.6" font-family="Times,serif" font-size="14.00">LatestComponent</text>
</g>
<!-- LatestComponent&#45;&gt;AppModule -->
<g id="edge13" class="edge">
<title>LatestComponent&#45;&gt;AppModule</title>
<path fill="none" stroke="black" d="M1751,-84.85C1751,-99.17 1751,-116.8 1751,-116.8 1751,-116.8 1842.96,-116.8 1842.96,-116.8"/>
<polygon fill="black" stroke="black" points="1842.96,-120.3 1852.96,-116.8 1842.96,-113.3 1842.96,-120.3"/>
</g>
<!-- MenComponent -->
<g id="node14" class="node">
<title>MenComponent</title>
<polygon fill="#ffffb3" stroke="black" points="1675.49,-84.8 1568.51,-84.8 1568.51,-48.8 1675.49,-48.8 1675.49,-84.8"/>
<text text-anchor="middle" x="1622" y="-62.6" font-family="Times,serif" font-size="14.00">MenComponent</text>
</g>
<!-- MenComponent&#45;&gt;AppModule -->
<g id="edge14" class="edge">
<title>MenComponent&#45;&gt;AppModule</title>
<path fill="none" stroke="black" d="M1622,-85.04C1622,-100.37 1622,-119.8 1622,-119.8 1622,-119.8 1843.24,-119.8 1843.24,-119.8"/>
<polygon fill="black" stroke="black" points="1843.24,-123.3 1853.24,-119.8 1843.24,-116.3 1843.24,-123.3"/>
</g>
<!-- MenShopComponent -->
<g id="node15" class="node">
<title>MenShopComponent</title>
<polygon fill="#ffffb3" stroke="black" points="1550.78,-84.8 1415.22,-84.8 1415.22,-48.8 1550.78,-48.8 1550.78,-84.8"/>
<text text-anchor="middle" x="1483" y="-62.6" font-family="Times,serif" font-size="14.00">MenShopComponent</text>
</g>
<!-- MenShopComponent&#45;&gt;AppModule -->
<g id="edge15" class="edge">
<title>MenShopComponent&#45;&gt;AppModule</title>
<path fill="none" stroke="black" d="M1483,-84.83C1483,-101.2 1483,-122.8 1483,-122.8 1483,-122.8 1843.23,-122.8 1843.23,-122.8"/>
<polygon fill="black" stroke="black" points="1843.23,-126.3 1853.23,-122.8 1843.23,-119.3 1843.23,-126.3"/>
</g>
<!-- RelatedComponent -->
<g id="node16" class="node">
<title>RelatedComponent</title>
<polygon fill="#ffffb3" stroke="black" points="1397.09,-84.8 1272.91,-84.8 1272.91,-48.8 1397.09,-48.8 1397.09,-84.8"/>
<text text-anchor="middle" x="1335" y="-62.6" font-family="Times,serif" font-size="14.00">RelatedComponent</text>
</g>
<!-- RelatedComponent&#45;&gt;AppModule -->
<g id="edge16" class="edge">
<title>RelatedComponent&#45;&gt;AppModule</title>
<path fill="none" stroke="black" d="M1335,-84.82C1335,-102.17 1335,-125.8 1335,-125.8 1335,-125.8 1842.91,-125.8 1842.91,-125.8"/>
<polygon fill="black" stroke="black" points="1842.91,-129.3 1852.91,-125.8 1842.91,-122.3 1842.91,-129.3"/>
</g>
<!-- ServicesComponent -->
<g id="node17" class="node">
<title>ServicesComponent</title>
<polygon fill="#ffffb3" stroke="black" points="1255.26,-84.8 1126.74,-84.8 1126.74,-48.8 1255.26,-48.8 1255.26,-84.8"/>
<text text-anchor="middle" x="1191" y="-62.6" font-family="Times,serif" font-size="14.00">ServicesComponent</text>
</g>
<!-- ServicesComponent&#45;&gt;AppModule -->
<g id="edge17" class="edge">
<title>ServicesComponent&#45;&gt;AppModule</title>
<path fill="none" stroke="black" d="M1191,-85.1C1191,-103.07 1191,-127.8 1191,-127.8 1191,-127.8 1843.33,-127.8 1843.33,-127.8"/>
<polygon fill="black" stroke="black" points="1843.33,-131.3 1853.33,-127.8 1843.33,-124.3 1843.33,-131.3"/>
</g>
<!-- ShopComponent -->
<g id="node18" class="node">
<title>ShopComponent</title>
<polygon fill="#ffffb3" stroke="black" points="1109.12,-84.8 998.88,-84.8 998.88,-48.8 1109.12,-48.8 1109.12,-84.8"/>
<text text-anchor="middle" x="1054" y="-62.6" font-family="Times,serif" font-size="14.00">ShopComponent</text>
</g>
<!-- ShopComponent&#45;&gt;AppModule -->
<g id="edge18" class="edge">
<title>ShopComponent&#45;&gt;AppModule</title>
<path fill="none" stroke="black" d="M1054,-84.97C1054,-103.89 1054,-130.8 1054,-130.8 1054,-130.8 1843.29,-130.8 1843.29,-130.8"/>
<polygon fill="black" stroke="black" points="1843.29,-134.3 1853.29,-130.8 1843.29,-127.3 1843.29,-134.3"/>
</g>
<!-- ShopPageComponent -->
<g id="node19" class="node">
<title>ShopPageComponent</title>
<polygon fill="#ffffb3" stroke="black" points="980.83,-84.8 843.17,-84.8 843.17,-48.8 980.83,-48.8 980.83,-84.8"/>
<text text-anchor="middle" x="912" y="-62.6" font-family="Times,serif" font-size="14.00">ShopPageComponent</text>
</g>
<!-- ShopPageComponent&#45;&gt;AppModule -->
<g id="edge19" class="edge">
<title>ShopPageComponent&#45;&gt;AppModule</title>
<path fill="none" stroke="black" d="M912,-85.11C912,-104.95 912,-133.8 912,-133.8 912,-133.8 1843.08,-133.8 1843.08,-133.8"/>
<polygon fill="black" stroke="black" points="1843.08,-137.3 1853.08,-133.8 1843.08,-130.3 1843.08,-137.3"/>
</g>
<!-- SingleProdComponent -->
<g id="node20" class="node">
<title>SingleProdComponent</title>
<polygon fill="#ffffb3" stroke="black" points="825.56,-84.8 682.44,-84.8 682.44,-48.8 825.56,-48.8 825.56,-84.8"/>
<text text-anchor="middle" x="754" y="-62.6" font-family="Times,serif" font-size="14.00">SingleProdComponent</text>
</g>
<!-- SingleProdComponent&#45;&gt;AppModule -->
<g id="edge20" class="edge">
<title>SingleProdComponent&#45;&gt;AppModule</title>
<path fill="none" stroke="black" d="M754,-84.83C754,-105.57 754,-136.8 754,-136.8 754,-136.8 1843.04,-136.8 1843.04,-136.8"/>
<polygon fill="black" stroke="black" points="1843.04,-140.3 1853.04,-136.8 1843.04,-133.3 1843.04,-140.3"/>
</g>
<!-- SingleProductPageComponent -->
<g id="node21" class="node">
<title>SingleProductPageComponent</title>
<polygon fill="#ffffb3" stroke="black" points="663.88,-84.8 476.12,-84.8 476.12,-48.8 663.88,-48.8 663.88,-84.8"/>
<text text-anchor="middle" x="570" y="-62.6" font-family="Times,serif" font-size="14.00">SingleProductPageComponent</text>
</g>
<!-- SingleProductPageComponent&#45;&gt;AppModule -->
<g id="edge21" class="edge">
<title>SingleProductPageComponent&#45;&gt;AppModule</title>
<path fill="none" stroke="black" d="M570,-84.97C570,-106.3 570,-138.8 570,-138.8 570,-138.8 1843.16,-138.8 1843.16,-138.8"/>
<polygon fill="black" stroke="black" points="1843.16,-142.3 1853.16,-138.8 1843.16,-135.3 1843.16,-142.3"/>
</g>
<!-- WeareComponent -->
<g id="node22" class="node">
<title>WeareComponent</title>
<polygon fill="#ffffb3" stroke="black" points="457.85,-84.8 340.15,-84.8 340.15,-48.8 457.85,-48.8 457.85,-84.8"/>
<text text-anchor="middle" x="399" y="-62.6" font-family="Times,serif" font-size="14.00">WeareComponent</text>
</g>
<!-- WeareComponent&#45;&gt;AppModule -->
<g id="edge22" class="edge">
<title>WeareComponent&#45;&gt;AppModule</title>
<path fill="none" stroke="black" d="M399,-84.96C399,-107.15 399,-141.8 399,-141.8 399,-141.8 1843.03,-141.8 1843.03,-141.8"/>
<polygon fill="black" stroke="black" points="1843.03,-145.3 1853.03,-141.8 1843.03,-138.3 1843.03,-145.3"/>
</g>
<!-- WomenComponent -->
<g id="node23" class="node">
<title>WomenComponent</title>
<polygon fill="#ffffb3" stroke="black" points="321.65,-84.8 196.35,-84.8 196.35,-48.8 321.65,-48.8 321.65,-84.8"/>
<text text-anchor="middle" x="259" y="-62.6" font-family="Times,serif" font-size="14.00">WomenComponent</text>
</g>
<!-- WomenComponent&#45;&gt;AppModule -->
<g id="edge23" class="edge">
<title>WomenComponent&#45;&gt;AppModule</title>
<path fill="none" stroke="black" d="M259,-84.89C259,-107.93 259,-144.8 259,-144.8 259,-144.8 1843.33,-144.8 1843.33,-144.8"/>
<polygon fill="black" stroke="black" points="1843.33,-148.3 1853.33,-144.8 1843.33,-141.3 1843.33,-148.3"/>
</g>
<!-- WomenShopComponent -->
<g id="node24" class="node">
<title>WomenShopComponent</title>
<polygon fill="#ffffb3" stroke="black" points="178.44,-84.8 23.56,-84.8 23.56,-48.8 178.44,-48.8 178.44,-84.8"/>
<text text-anchor="middle" x="101" y="-62.6" font-family="Times,serif" font-size="14.00">WomenShopComponent</text>
</g>
<!-- WomenShopComponent&#45;&gt;AppModule -->
<g id="edge24" class="edge">
<title>WomenShopComponent&#45;&gt;AppModule</title>
<path fill="none" stroke="black" d="M101,-85.18C101,-109.08 101,-147.8 101,-147.8 101,-147.8 1843.3,-147.8 1843.3,-147.8"/>
<polygon fill="black" stroke="black" points="1843.3,-151.3 1853.3,-147.8 1843.3,-144.3 1843.3,-151.3"/>
</g>
<!-- AppComponent  -->
<g id="node27" class="node">
<title>AppComponent </title>
<polygon fill="#80b1d3" stroke="black" points="1949.44,-214.8 1840.56,-214.8 1840.56,-178.8 1949.44,-178.8 1949.44,-214.8"/>
<text text-anchor="middle" x="1895" y="-192.6" font-family="Times,serif" font-size="14.00">AppComponent </text>
</g>
<!-- AppModule&#45;&gt;AppComponent  -->
<g id="edge26" class="edge">
<title>AppModule&#45;&gt;AppComponent </title>
<path fill="none" stroke="black" stroke-dasharray="1,5" d="M1895,-149.91C1895,-149.91 1895,-168.79 1895,-168.79"/>
<polygon fill="black" stroke="black" points="1891.5,-168.79 1895,-178.79 1898.5,-168.79 1891.5,-168.79"/>
</g>
<!-- AppRoutingModule -->
<g id="node26" class="node">
<title>AppRoutingModule</title>
<polygon fill="#8dd3c7" stroke="black" points="3654.28,-84.8 3651.28,-88.8 3630.28,-88.8 3627.28,-84.8 3525.72,-84.8 3525.72,-48.8 3654.28,-48.8 3654.28,-84.8"/>
<text text-anchor="middle" x="3590" y="-62.6" font-family="Times,serif" font-size="14.00">AppRoutingModule</text>
</g>
<!-- AppRoutingModule&#45;&gt;AppModule -->
<g id="edge25" class="edge">
<title>AppRoutingModule&#45;&gt;AppModule</title>
<path fill="none" stroke="black" d="M3590,-85.18C3590,-109.08 3590,-147.8 3590,-147.8 3590,-147.8 1946.9,-147.8 1946.9,-147.8"/>
<polygon fill="black" stroke="black" points="1946.9,-144.3 1936.9,-147.8 1946.9,-151.3 1946.9,-144.3"/>
</g>
</g>
</svg>
